<svg width="120" height="120" viewBox="0 0 120 120" fill="none" xmlns="http://www.w3.org/2000/svg">
<g clip-path="url(#clip0_5_2)">
<rect width="120" height="120" fill="white"/>
<path d="M68.5 82L77.5 87L80 89.5L82 93L82.5 97L83 104L83.5 120H67L68.5 82Z" fill="#FDEDDB"/>
<path d="M52 82L43 87L40.5 89.5L38.5 93L38 97L37.5 104L37 120H53.5L52 82Z" fill="#FDEDDB"/>
<path d="M46 94C46 92.3431 47.3431 91 49 91H71C72.6569 91 74 92.3431 74 94V120C74 121.657 72.6569 123 71 123H49C47.3431 123 46 121.657 46 120V94Z" fill="#50A992"/>
<path d="M74 93C74 101.284 67.732 106 60 106C52.268 106 46 101.284 46 93C46 84.7157 52.768 79.5 60.5 79.5C68.232 79.5 74 84.7157 74 93Z" fill="white"/>
<ellipse cx="60" cy="45.5" rx="43" ry="34.5" fill="#50A992"/>
<ellipse cx="60" cy="80.5" rx="7" ry="2.5" fill="#F5D4C1"/>
<rect x="53" y="75" width="14" height="6" rx="1" fill="#F5D4C1"/>
<ellipse cx="60" cy="42" rx="32" ry="36" fill="#FDEDDB"/>
<path d="M55.5 71L56.1654 71.6654C56.7142 72.2142 57.3834 72.6278 58.1198 72.8733L58.4189 72.973C59.4452 73.3151 60.5548 73.3151 61.5811 72.973L61.8802 72.8733C62.6166 72.6278 63.2858 72.2142 63.8346 71.6654L64.5 71" stroke="#354F52" stroke-linecap="round"/>
<path d="M58 65L58.1013 64.8987C59.1822 63.8178 60.9031 63.7224 62.0967 64.6774L62.5 65" stroke="#354F52" stroke-linecap="round"/>
<path d="M101.867 39.2977C101.867 45.3435 81.1289 43.8321 58.0063 43.8321C34.8838 43.8321 18.1329 45.3435 18.1329 39.2977C16.1392 15.0307 36.8775 0 60 0C83.1226 0 103.861 15.1145 101.867 39.2977Z" fill="#8AE9C1"/>
<ellipse cx="81" cy="66.5" rx="7" ry="2.5" fill="#B3FEE3"/>
<ellipse cx="39" cy="66.5" rx="7" ry="2.5" fill="#B3FEE3"/>
<path d="M82 37L102 34L103 43V49.5V56L102 62L100.5 65.5L98.5 68.5L96.5 71L93 73.5L90 75.5L86 77L82 78L78 78.5L80 68.5L81.5 59.5L82 50.5V37Z" fill="#8AE9C1"/>
<path d="M38 37L18 34L17 43V49.5V56L18 62L19.5 65.5L21.5 68.5L23.5 71L27 73.5L30 75.5L34 77L38 78L42 78.5L40 68.5L38.5 59.5L38 50.5V37Z" fill="#8AE9C1"/>
<path d="M72.6646 53.1708L73.3354 53.5062L74.0062 52.1646L73.3354 51.8292L72.6646 53.1708ZM70.6584 51.3292L70.9938 50.6584L70.9938 50.6584L70.6584 51.3292ZM69.75 48C69.75 47.5858 69.4142 47.25 69 47.25C68.5858 47.25 68.25 47.5858 68.25 48H69.75ZM73.3354 51.8292L70.9938 50.6584L70.3229 52L72.6646 53.1708L73.3354 51.8292ZM69.75 48.6459V48H68.25V48.6459H69.75ZM70.9938 50.6584C70.2315 50.2772 69.75 49.4981 69.75 48.6459H68.25C68.25 50.0663 69.0525 51.3648 70.3229 52L70.9938 50.6584Z" fill="#354F52"/>
<rect x="70" y="48.5" width="8" height="14" rx="4" fill="#354F52"/>
<path d="M45.6646 53.1708L46.3354 53.5062L47.0062 52.1646L46.3354 51.8292L45.6646 53.1708ZM43.6584 51.3292L43.9938 50.6584L43.9938 50.6584L43.6584 51.3292ZM42.75 48C42.75 47.5858 42.4142 47.25 42 47.25C41.5858 47.25 41.25 47.5858 41.25 48H42.75ZM46.3354 51.8292L43.9938 50.6584L43.3229 52L45.6646 53.1708L46.3354 51.8292ZM42.75 48.6459V48H41.25V48.6459H42.75ZM43.9938 50.6584C43.2315 50.2772 42.75 49.4981 42.75 48.6459H41.25C41.25 50.0663 42.0525 51.3648 43.3229 52L43.9938 50.6584Z" fill="#354F52"/>
<rect x="43" y="48.5" width="8" height="14" rx="4" fill="#354F52"/>
<ellipse cx="60" cy="41" rx="13" ry="6" fill="#8AE9C1"/>
<ellipse cx="78.5" cy="42" rx="9.5" ry="4" fill="#8AE9C1"/>
<ellipse cx="43.5" cy="42" rx="9.5" ry="4" fill="#8AE9C1"/>
</g>
<defs>
<clipPath id="clip0_5_2">
<rect width="120" height="120" fill="white"/>
</clipPath>
</defs>
</svg>
